<?xml version="1.0" standalone="no"?>
<!DOCTYPE svg PUBLIC "-//W3C//DTD SVG 20010904//EN"
 "http://www.w3.org/TR/2001/REC-SVG-20010904/DTD/svg10.dtd">
<svg version="1.0" xmlns="http://www.w3.org/2000/svg"
 width="18px" height="18px" viewBox="0 0 512.000000 512.000000"
 preserveAspectRatio="xMidYMid meet">
<metadata>
Created by potrace 1.16, written by Joaquin Enriquez Marin 2023
</metadata>
<g transform="translate(0.000000,512.000000) scale(0.100000,-0.100000)"
fill="#228" stroke="none">
<path d="M2235 5104 c-591 -80 -1100 -334 -1510 -755 -192 -197 -330 -388
-448 -621 -192 -376 -277 -737 -277 -1168 0 -431 85 -792 277 -1168 118 -233
256 -424 448 -621 413 -424 923 -678 1518 -756 156 -20 478 -20 634 0 595 78
1105 332 1518 756 192 197 330 388 448 621 192 376 277 737 277 1168 0 431
-85 792 -277 1168 -118 233 -256 424 -448 621 -413 424 -923 678 -1518 756
-146 19 -500 19 -642 -1z m395 -2211 l0 -146 23 21 c39 37 108 62 171 62 83 0
138 -28 174 -88 27 -46 27 -50 31 -244 l3 -198 -56 0 -56 0 0 175 c0 199 -7
227 -65 251 -48 20 -91 18 -143 -7 -75 -37 -82 -58 -82 -251 l0 -168 -55 0
-55 0 0 370 0 370 55 0 55 0 0 -147z m-454 88 c50 -23 114 -76 114 -96 0 -6
-16 -26 -35 -45 l-34 -33 -22 28 c-32 40 -113 75 -174 75 -104 -1 -174 -62
-143 -126 19 -40 60 -60 173 -85 104 -22 164 -46 203 -83 103 -93 42 -266
-110 -311 -67 -20 -192 -19 -256 1 -50 16 -136 75 -155 105 -8 13 -3 26 24 57
l33 40 52 -47 c58 -53 106 -71 187 -71 77 0 136 25 152 63 29 69 -24 114 -166
142 -93 18 -134 32 -181 63 -67 44 -96 140 -64 215 19 47 88 102 149 121 70
21 188 15 253 -13z m-1118 -33 l-3 -53 -192 -3 -193 -2 0 -90 0 -90 165 0 165
0 0 -55 0 -55 -165 0 -165 0 0 -100 0 -100 195 0 195 0 0 -50 0 -50 -250 0
-250 0 0 350 0 350 251 0 250 0 -3 -52z m2574 -128 c107 -30 187 -125 195
-233 10 -117 -44 -214 -149 -268 -60 -31 -186 -38 -259 -14 -61 21 -131 81
-162 140 -30 57 -30 174 0 230 37 70 101 124 173 146 37 11 160 10 202 -1z
m809 -5 c103 -37 159 -114 167 -230 6 -97 -15 -161 -74 -219 -89 -89 -242
-103 -348 -31 -20 14 -39 25 -41 25 -3 0 -5 -63 -5 -140 l0 -140 -50 0 -50 0
0 370 0 370 50 0 50 0 0 -37 0 -36 23 20 c65 60 185 81 278 48z m-2881 -230
l0 -55 -154 0 c-166 0 -166 0 -166 55 0 55 0 55 166 55 l154 0 0 -55z"/>
<path d="M3457 2725 c-74 -26 -117 -84 -117 -160 0 -95 53 -156 151 -177 66
-13 123 0 169 38 43 37 60 75 60 134 0 59 -17 97 -60 133 -54 46 -132 58 -203
32z"/>
<path d="M4235 2716 c-112 -50 -129 -216 -31 -291 98 -74 261 -35 297 72 15
47 6 128 -18 161 -39 53 -80 72 -152 72 -36 -1 -79 -7 -96 -14z"/>
</g>
</svg>
